v -0.500000 0.000000 0.500000 #topleft
v 0.500000 0.000000 0.500000  #topright
v 0.500000 0.000000 -0.500000 #bot right
v 0.500000 0.000000 -0.500000 #bot right
v -0.500000 0.000000 -0.500000 #bot left
v -0.500000 0.000000 0.500000 #topleft
vt 0.000000 0.000000 #topleft
vt 1.000000 0.000000 #topright
vt 1.000000 1.000000 #bot right
vt 1.000000 1.000000 #bot right
vt 0.000000 1.000000 #bot left
vt 0.000000 0.000000 #topleft
vn 0.0000 1.0000 0.0000
vn 0.0000 1.0000 0.0000
vn 0.0000 1.0000 0.0000
vn 0.0000 1.0000 0.0000
vn 0.0000 1.0000 0.0000
vn 0.0000 1.0000 0.0000
f 1/1/1 2/2/2 3/3/3 
f 4/4/4 5/5/5 6/6/6
